<svg xmlns="http://www.w3.org/2000/svg" xmlns:xlink="http://www.w3.org/1999/xlink" fill="none" version="1.1" width="422" height="102" viewBox="0 0 422 102"><defs><clipPath id="master_svg0_97_1880"><rect x="0" y="0" width="422" height="102" rx="0"/></clipPath><clipPath id="master_svg1_97_1892"><rect x="0" y="-18" width="140" height="140" rx="0"/></clipPath></defs><g clip-path="url(#master_svg0_97_1880)"><g><g><g><g><g><path d="M163.7292,23.223300000000002Q160.3047,23.223300000000002,158.4297,25.6582Q156.55469,28.0931,156.55469,32.429Q156.55469,41.4785,163.7292,41.4785Q166.737,41.4785,171.0078,39.9681L171.0078,45.0462Q167.4922,46.5176,163.1562,46.5176Q156.93229,46.5176,153.625,42.871700000000004Q150.33073,39.225899999999996,150.33073,32.403Q150.33073,28.1061,151.94531,24.877000000000002Q153.57292,21.6348,156.60677,19.91602Q159.6536,18.18425,163.7292,18.18425Q167.8958,18.18425,172.0885,20.18945L170.1354,25.124299999999998Q168.5339,24.356099999999998,166.9062,23.7962Q165.2917,23.223300000000002,163.7292,23.223300000000002ZM177.4271,46.5176L177.4271,18.18425L183.4818,18.18425L183.4818,41.5176L195.0703,41.5176L195.0703,46.5176L177.4271,46.5176ZM225.85160000000002,32.337900000000005Q225.85160000000002,39.1738,222.33589999999998,42.8457Q218.8203,46.5176,212.2578,46.5176Q205.6953,46.5176,202.1797,42.8457Q198.6641,39.1738,198.6641,32.2988Q198.6641,25.436799999999998,202.1927,21.8171Q205.72140000000002,18.18425,212.2969,18.18425Q218.8854,18.18425,222.362,21.8431Q225.85160000000002,25.4889,225.85160000000002,32.337900000000005ZM205.0052,32.337900000000005Q205.0052,36.8561,206.8151,39.147800000000004Q208.638,41.439499999999995,212.2578,41.439499999999995Q219.4974,41.439499999999995,219.4974,32.337900000000005Q219.4974,23.223300000000002,212.2969,23.223300000000002Q208.6771,23.223300000000002,206.84109999999998,25.528Q205.0052,27.8197,205.0052,32.337900000000005ZM254.836,18.18425L254.836,36.2702Q254.836,39.3691,253.417,41.6999Q252.01,44.0306,249.328,45.2806Q246.65890000000002,46.5176,243,46.5176Q237.4922,46.5176,234.4453,43.7572Q231.39839999999998,40.996700000000004,231.39839999999998,36.192099999999996L231.39839999999998,18.18425L237.4401,18.18425L237.4401,35.2155Q237.4401,38.4316,238.76819999999998,39.942099999999996Q240.09640000000002,41.439499999999995,243.16930000000002,41.439499999999995Q246.138,41.439499999999995,247.46609999999998,39.929Q248.80700000000002,38.4186,248.80700000000002,35.1764L248.80700000000002,18.18425L254.836,18.18425ZM285.29200000000003,32.0775Q285.29200000000003,39.0697,281.26800000000003,42.7936Q277.25800000000004,46.5176,269.68,46.5176L261.594,46.5176L261.594,18.18425L270.565,18.18425Q277.557,18.18425,281.424,21.856099999999998Q285.29200000000003,25.515,285.29200000000003,32.0775ZM279.003,32.2337Q279.003,23.145200000000003,270.878,23.145200000000003L267.648,23.145200000000003L267.648,41.5176L270.253,41.5176Q279.003,41.5176,279.003,32.2337ZM291.594,18.18425L300.48699999999997,18.18425Q306.555,18.18425,309.302,19.85091Q312.049,21.5176,312.049,25.1634Q312.049,27.6243,310.839,29.2129Q309.64099999999996,30.7884,307.648,31.1139L307.648,31.3092Q310.37,31.9212,311.568,33.6139Q312.76599999999996,35.3066,312.76599999999996,38.1061Q312.76599999999996,42.0775,309.94,44.304Q307.128,46.5176,302.284,46.5176L291.594,46.5176L291.594,18.18425ZM297.648,29.0176L301.164,29.0176Q303.625,29.0176,304.73199999999997,28.3145Q305.839,27.6113,305.839,25.9837Q305.839,24.4603,304.628,23.8092Q303.43,23.145200000000003,300.839,23.145200000000003L297.648,23.145200000000003L297.648,29.0176ZM297.648,33.8223L297.648,41.5176L301.594,41.5176Q304.094,41.5176,305.279,40.528Q306.477,39.538399999999996,306.477,37.4941Q306.477,33.8223,301.398,33.8223L297.648,33.8223ZM334.706,46.5176L318.26,46.5176L318.26,18.18425L334.706,18.18425L334.706,23.145200000000003L324.315,23.145200000000003L324.315,29.0176L333.99,29.0176L333.99,33.9785L324.315,33.9785L324.315,41.5176L334.706,41.5176L334.706,46.5176ZM346.815,30.6842L348.76800000000003,30.6842Q351.64599999999996,30.6842,353.01300000000003,29.7467Q354.38,28.8092,354.38,26.804000000000002Q354.38,24.8249,352.974,23.991500000000002Q351.581,23.145200000000003,348.651,23.145200000000003L346.815,23.145200000000003L346.815,30.6842ZM346.815,35.6061L346.815,46.5176L340.76,46.5176L340.76,18.18425L349.081,18.18425Q354.901,18.18425,357.688,20.2806Q360.48699999999997,22.377000000000002,360.48699999999997,26.6478Q360.48699999999997,29.1348,359.094,31.0749Q357.714,33.015,355.174,34.121700000000004L363.573,46.5176L356.85400000000004,46.5176L350.044,35.6061L346.815,35.6061ZM373.48199999999997,30.6842L375.435,30.6842Q378.313,30.6842,379.68,29.7467Q381.047,28.8092,381.047,26.804000000000002Q381.047,24.8249,379.64099999999996,23.991500000000002Q378.247,23.145200000000003,375.318,23.145200000000003L373.48199999999997,23.145200000000003L373.48199999999997,30.6842ZM373.48199999999997,35.6061L373.48199999999997,46.5176L367.427,46.5176L367.427,18.18425L375.747,18.18425Q381.568,18.18425,384.35400000000004,20.2806Q387.154,22.377000000000002,387.154,26.6478Q387.154,29.1348,385.76,31.0749Q384.38,33.015,381.841,34.121700000000004L390.24,46.5176L383.52099999999996,46.5176L376.711,35.6061L373.48199999999997,35.6061ZM402.98699999999997,29.8509L408.938,18.18425L415.461,18.18425L405.995,35.4889L405.995,46.5176L399.97900000000004,46.5176L399.97900000000004,35.684200000000004L390.5,18.18425L397.063,18.18425L402.98699999999997,29.8509ZM175.2917,72.0775Q175.2917,79.0697,171.2682,82.7936Q167.2578,86.5176,159.6797,86.5176L151.59375,86.5176L151.59375,58.1842L160.5651,58.1842Q167.5573,58.1842,171.4245,61.8561Q175.2917,65.515,175.2917,72.0775ZM169.0026,72.2337Q169.0026,63.1452,160.8776,63.1452L157.64844,63.1452L157.64844,81.5176L160.2526,81.5176Q169.0026,81.5176,169.0026,72.2337ZM199.0807,86.5176L197.0104,79.929L186.5938,79.929L184.5234,86.5176L178,86.5176L188.0781,58.1842L195.487,58.1842L205.6042,86.5176L199.0807,86.5176ZM195.5651,74.8509Q192.6875,65.6712,192.3229,64.4733Q191.97140000000002,63.2624,191.8151,62.5592Q191.1641,65.0462,188.1172,74.8509L195.5651,74.8509ZM220.1094,86.5176L214.0547,86.5176L214.0547,63.2233L206.3073,63.2233L206.3073,58.1842L227.8698,58.1842L227.8698,63.2233L220.1094,63.2233L220.1094,86.5176ZM249.914,86.5176L247.8437,79.929L237.4271,79.929L235.35680000000002,86.5176L228.8333,86.5176L238.9115,58.1842L246.3203,58.1842L256.437,86.5176L249.914,86.5176ZM246.39839999999998,74.8509Q243.5208,65.6712,243.1562,64.4733Q242.8047,63.2624,242.64839999999998,62.5592Q241.9974,65.0462,238.9505,74.8509L246.39839999999998,74.8509ZM259.927,58.1842L268.82,58.1842Q274.88800000000003,58.1842,277.635,59.8509Q280.38300000000004,61.5176,280.38300000000004,65.1634Q280.38300000000004,67.62440000000001,279.172,69.21289999999999Q277.974,70.7884,275.98199999999997,71.1139L275.98199999999997,71.3092Q278.703,71.9212,279.901,73.6139Q281.099,75.3066,281.099,78.1061Q281.099,82.0775,278.273,84.304Q275.461,86.5176,270.617,86.5176L259.927,86.5176L259.927,58.1842ZM265.98199999999997,69.0176L269.497,69.0176Q271.95799999999997,69.0176,273.065,68.31450000000001Q274.172,67.6113,274.172,65.9837Q274.172,64.46029999999999,272.961,63.8092Q271.76300000000003,63.1452,269.172,63.1452L265.98199999999997,63.1452L265.98199999999997,69.0176ZM265.98199999999997,73.8223L265.98199999999997,81.5176L269.927,81.5176Q272.427,81.5176,273.61199999999997,80.528Q274.81,79.5384,274.81,77.4941Q274.81,73.8223,269.73199999999997,73.8223L265.98199999999997,73.8223ZM304.081,86.5176L302.01,79.929L291.594,79.929L289.523,86.5176L283,86.5176L293.078,58.1842L300.48699999999997,58.1842L310.60400000000004,86.5176L304.081,86.5176ZM300.565,74.8509Q297.688,65.6712,297.323,64.4733Q296.971,63.2624,296.815,62.5592Q296.164,65.0462,293.11699999999996,74.8509L300.565,74.8509ZM330.956,78.4837Q330.956,82.2207,328.169,84.3691Q325.38300000000004,86.5176,320.422,86.5176Q315.852,86.5176,312.336,84.7988L312.336,79.1738Q315.227,80.4629,317.23199999999997,80.9967Q319.23699999999997,81.5176,320.89099999999996,81.5176Q322.88300000000004,81.5176,323.951,80.8275Q325.01800000000003,80.1374,325.01800000000003,78.7702Q325.01800000000003,77.9629,324.549,77.3379Q324.081,76.6999,323.169,76.1139Q322.27099999999996,75.528,319.471,74.2389Q316.85400000000004,73.054,315.539,71.96029999999999Q314.23699999999997,70.8665,313.456,69.4212Q312.674,67.96289999999999,312.674,66.02279999999999Q312.674,62.3639,315.24,60.2806Q317.805,58.1842,322.336,58.1842Q324.562,58.1842,326.581,58.7181Q328.61199999999997,59.2389,330.812,60.1895L328.85900000000004,64.90299999999999Q326.581,63.9655,325.08299999999997,63.6009Q323.586,63.2233,322.14099999999996,63.2233Q320.422,63.2233,319.497,63.9525Q318.586,64.6686,318.586,65.84049999999999Q318.586,66.6087,318.951,67.1947Q319.328,67.7676,320.135,68.3014Q320.956,68.83529999999999,323.977,70.2285Q327.98699999999997,72.0775,329.471,73.93950000000001Q330.956,75.7884,330.956,78.4837ZM352.206,86.5176L335.76,86.5176L335.76,58.1842L352.206,58.1842L352.206,63.1452L341.815,63.1452L341.815,69.0176L351.49,69.0176L351.49,73.9785L341.815,73.9785L341.815,81.5176L352.206,81.5176L352.206,86.5176Z" fill="#FFFFFF" fill-opacity="1"/></g></g></g><g clip-path="url(#master_svg1_97_1892)"><g><path d="M36.4480615814209,55.197756845092776L36.44866158142089,55.198756845092774Q36.6256615814209,55.448556845092774,36.8317615814209,55.67495684509277Q37.0378615814209,55.90135684509277,37.2699615814209,56.100956845092774Q37.502061581420904,56.30055684509277,37.7568615814209,56.47035684509277Q38.0115615814209,56.640156845092775,38.2850615814209,56.77765684509277Q38.5585615814209,56.915156845092774,38.8467615814209,57.01825684509277Q39.1350615814209,57.12135684509278,39.4336615814209,57.188556845092776Q39.7322615814209,57.255756845092776,40.036861581420894,57.28605684509277Q40.3413615814209,57.31635684509278,40.647361581420896,57.309256845092776Q40.8928615814209,57.303656845092775,41.136661581420896,57.273956845092776Q41.380461581420896,57.244156845092775,41.620161581420895,57.19075684509277Q41.8598615814209,57.13725684509277,42.0931615814209,57.060556845092776Q42.3264615814209,56.983856845092774,42.551061581420896,56.884556845092774Q42.7757615814209,56.78535684509277,42.9895615814209,56.66465684509277Q43.2033615814209,56.543856845092776,43.4042615814209,56.402756845092775Q43.6051615814209,56.26155684509278,43.7912615814209,56.10145684509278Q43.9773615814209,55.941256845092774,44.1468615814209,55.76355684509277Q44.3163615814209,55.585956845092774,44.4676615814209,55.392456845092774Q44.6189615814209,55.19905684509278,44.7504615814209,54.99175684509277Q44.8820615814209,54.78435684509277,44.9926615814209,54.56515684509277Q45.103261581420895,54.34595684509277,45.1918615814209,54.11685684509278Q45.2804615814209,53.88785684509277,45.3460615814209,53.65115684509277Q45.4117615814209,53.414556845092775,45.4539615814209,53.17255684509277Q45.4961615814209,52.93065684509277,45.5143615814209,52.68565684509277Q45.532661581420896,52.44075684509277,45.5267615814209,52.195156845092775Q45.5179615814209,51.82415684509277,45.4544615814209,51.45855684509277Q45.3908615814209,51.092856845092776,45.2741615814209,50.740556845092776Q45.1573615814209,50.388256845092776,44.9897615814209,50.05695684509277Q44.8222615814209,49.725756845092775,44.607761581420895,49.42275684509277L44.6072615814209,49.42215684509277Q44.6040615814209,49.41765684509277,44.6008615814209,49.41315684509277Q41.1066615814209,44.47415684509277,40.9643615814209,38.50455684509277Q40.8655615814209,34.358856845092774,42.458161581420896,30.534556845092773Q44.0087615814209,26.810856845092772,46.9443615814209,23.883456845092773Q49.9057615814209,20.93025684509277,53.8079615814209,19.253556845092774Q57.8678615814209,17.509056845092772,62.3718615814209,17.404956845092773Q66.3561615814209,17.312836845092775,70.0778615814209,18.527156845092776Q73.6581615814209,19.69545684509277,76.6239615814209,21.94525684509277Q79.5481615814209,24.163556845092774,81.5186615814209,27.161456845092772Q82.6463615814209,28.877256845092774,83.3861615814209,30.736456845092775Q82.8139615814209,30.972156845092773,82.2510615814209,31.227856845092774Q81.6882615814209,31.483656845092774,81.1353615814209,31.759056845092772Q80.5824615814209,32.03445684509278,80.0403615814209,32.32925684509277Q79.4983615814209,32.624056845092774,78.9677615814209,32.93775684509278Q78.4371615814209,33.251456845092775,77.91866158142089,33.583656845092776Q77.40026158142089,33.915856845092776,76.8947615814209,34.26615684509277Q76.3892615814209,34.61645684509277,75.89726158142089,34.984356845092776Q75.4052615814209,35.352256845092775,74.9274615814209,35.73725684509277Q74.4497615814209,36.12225684509278,73.9868615814209,36.52395684509277Q73.5238615814209,36.92555684509277,73.0764615814209,37.343256845092775Q72.6289615814209,37.76095684509278,72.1975615814209,38.19415684509278Q71.7661615814209,38.62735684509278,71.35146158142089,39.07555684509278Q70.9366615814209,39.52365684509277,70.5391615814209,39.98615684509277Q70.1415615814209,40.44865684509277,69.7616615814209,40.924856845092776Q69.3818615814209,41.40115684509277,69.0202615814209,41.89045684509277Q68.6585615814209,42.37975684509277,68.3156615814209,42.88145684509277Q67.9727615814209,43.383256845092774,67.6489615814209,43.896756845092774Q67.3252615814209,44.410256845092775,67.0210615814209,44.934856845092774Q66.7168615814209,45.459456845092774,66.43276158142089,45.99445684509277Q66.14856158142089,46.529456845092774,65.88476158142089,47.07415684509277Q65.6209615814209,47.618756845092776,65.37796158142089,48.17235684509277Q65.13486158142089,48.725956845092774,64.9128615814209,49.287856845092776Q64.6908615814209,49.849656845092774,64.49016158142089,50.41895684509277Q64.2895615814209,50.988156845092774,64.1104615814209,51.564156845092775Q63.9314615814209,52.140156845092775,63.7742615814209,52.72205684509277Q63.6170615814209,53.30395684509277,63.4819615814209,53.89105684509278Q63.346861581420896,54.47815684509278,63.2339615814209,55.06965684509277Q63.121061581420896,55.66105684509277,63.0305615814209,56.256156845092775Q62.9400615814209,56.851156845092774,62.8721615814209,57.44905684509278Q62.8041615814209,58.046856845092776,62.7587615814209,58.646756845092774Q62.7134615814209,59.246556845092776,62.6907615814209,59.84765684509277Q62.6680615814209,60.44865684509277,62.6680615814209,61.05015684509277Q62.6680615814209,62.40635684509277,62.783261581420895,63.75815684509277Q62.8985615814209,65.10975684509278,63.1282615814209,66.44775684509278Q63.3580615814209,67.78575684509278,63.700661581420896,69.10095684509278Q64.0433615814209,70.41605684509278,64.4966615814209,71.69955684509277Q64.94986158142089,72.98305684509278,65.51066158142089,74.22615684509277Q66.07146158142089,75.46935684509278,66.7360615814209,76.66365684509277Q67.4005615814209,77.85805684509278,68.1643615814209,78.99545684509278Q68.92816158142091,80.13295684509278,69.7860615814209,81.20585684509277L65.4579615814209,81.20635684509277L37.7823615814209,81.20525684509278Q33.8593615814209,80.67805684509277,30.382861581420897,78.88095684509277Q26.8899615814209,77.07545684509277,24.2830615814209,74.21985684509278Q21.6872615814209,71.37645684509278,20.3257615814209,67.87915684509278Q18.926061581420896,64.28365684509276,19.0040615814209,60.41425684509277Q19.080161581420896,56.64125684509278,20.5515615814209,53.17575684509277Q21.982361581420896,49.80585684509278,24.570961581420896,47.085556845092775Q27.1669615814209,44.35765684509278,30.5879615814209,42.63655684509278Q30.9217615814209,42.468656845092774,31.259461581420897,42.312256845092776Q32.2441615814209,49.261056845092774,36.4462615814209,55.195356845092775L36.4480615814209,55.197756845092776ZM83.0052615814209,91.20425684509277L65.4406615814209,91.20615684509278L37.141361581420895,91.20505684509277L36.8398615814209,91.16825684509277Q30.9749615814209,90.45245684509277,25.777761581420897,87.76585684509277Q20.7008615814209,85.14145684509278,16.891881581420897,80.96925684509277Q13.042231581420898,76.75245684509278,11.005891581420899,71.52155684509277Q8.887962581420899,66.08115684509278,9.005934711420899,60.23105684509277Q9.1209675814209,54.52675684509278,11.347731581420899,49.28215684509277Q13.489521581420899,44.237756845092775,17.332601581420896,40.199256845092776Q21.129561581420898,36.209256845092774,26.106661581420898,33.70525684509278Q28.8070615814209,32.346656845092774,31.679861581420898,31.51525684509277Q32.2374615814209,29.059256845092772,33.2261615814209,26.684956845092774Q35.539861581420894,21.128956845092773,39.880661581420895,16.800236845092773Q44.195761581420896,12.497176845092774,49.854561581420896,10.065646845092774Q55.6934615814209,7.556771845092774,62.133661581420895,7.407866955092773Q67.8267615814209,7.276233845092773,73.1738615814209,9.020916845092774Q78.3558615814209,10.711766845092773,82.6641615814209,13.979986845092775Q86.9588615814209,17.237926845092773,89.8740615814209,21.673356845092773Q91.9372615814209,24.812356845092772,93.13956158142089,28.285256845092775Q94.9333615814209,28.101056845092774,96.73716158142089,28.101056845092774Q97.5735615814209,28.101056845092774,98.4088615814209,28.140756845092774Q99.2442615814209,28.180456845092774,100.0765615814209,28.259756845092774Q100.9088615814209,28.338956845092774,101.7361615814209,28.457656845092774Q102.5634615814209,28.576356845092775,103.3837615814209,28.734156845092773Q104.2039615814209,28.891956845092775,105.0152615814209,29.088456845092775Q105.8265615814209,29.28505684509277,106.6269615814209,29.519856845092775Q107.4272615814209,29.754656845092775,108.2147615814209,30.027156845092772Q109.0017615814209,30.299656845092773,109.7747615814209,30.609156845092773Q110.5477615814209,30.918656845092773,111.3037615814209,31.264556845092773Q112.0597615814209,31.610356845092774,112.7977615814209,31.991656845092773Q113.5347615814209,32.37295684509277,114.2517615814209,32.78875684509278Q114.9697615814209,33.204556845092775,115.6647615814209,33.65395684509277Q116.3607615814209,34.103356845092776,117.0317615814209,34.58515684509277Q117.70376158142089,35.06705684509277,118.3507615814209,35.58015684509277Q118.9967615814209,36.093256845092775,119.6167615814209,36.63645684509277Q120.2367615814209,37.17965684509277,120.8277615814209,37.75155684509278Q121.4187615814209,38.323556845092774,121.9807615814209,38.922856845092774Q122.5427615814209,39.52215684509277,123.07276158142089,40.147456845092776Q123.6037615814209,40.772656845092776,124.1017615814209,41.42235684509277Q124.59976158142089,42.072056845092774,125.0647615814209,42.744556845092774Q125.5297615814209,43.41715684509278,125.9587615814209,44.11095684509277Q126.3887615814209,44.80465684509277,126.7837615814209,45.51805684509277Q127.1777615814209,46.231356845092776,127.5357615814209,46.96255684509277Q127.8927615814209,47.69375684509277,128.2127615814209,48.441056845092774Q128.5327615814209,49.18835684509278,128.8147615814209,49.94995684509277Q129.09676158142088,50.711456845092776,129.3397615814209,51.48555684509277Q129.5817615814209,52.259556845092774,129.7857615814209,53.04415684509277Q129.9887615814209,53.82875684509278,130.15176158142089,54.62205684509277Q130.3147615814209,55.415356845092774,130.4377615814209,56.215456845092774Q130.5607615814209,57.015556845092775,130.6427615814209,57.820556845092774Q130.7247615814209,58.62545684509277,130.76576158142092,59.433356845092774Q130.80676158142091,60.24125684509277,130.80676158142091,61.05015684509277Q130.80676158142091,61.85895684509277,130.76576158142092,62.666856845092774Q130.7247615814209,63.47475684509277,130.6427615814209,64.27965684509277Q130.5607615814209,65.08465684509278,130.4377615814209,65.88475684509277Q130.3147615814209,66.68485684509278,130.15176158142089,67.47815684509277Q129.9887615814209,68.27145684509277,129.7857615814209,69.05605684509277Q129.5817615814209,69.84065684509278,129.3397615814209,70.61475684509277Q129.09676158142088,71.38875684509277,128.8147615814209,72.15035684509277Q128.5327615814209,72.91185684509277,128.2127615814209,73.65915684509277Q127.8927615814209,74.40645684509278,127.5357615814209,75.13765684509278Q127.1777615814209,75.86885684509278,126.7837615814209,76.58215684509277Q126.3887615814209,77.29555684509278,125.9587615814209,77.98935684509277Q125.5297615814209,78.68305684509278,125.0647615814209,79.35565684509277Q124.59976158142089,80.02815684509277,124.1017615814209,80.67785684509278Q123.6037615814209,81.32755684509277,123.07276158142089,81.95275684509278Q122.5427615814209,82.57805684509277,121.9807615814209,83.17735684509277Q121.4187615814209,83.77665684509277,120.8277615814209,84.34865684509278Q120.2367615814209,84.92055684509278,119.6167615814209,85.46375684509277Q118.9967615814209,86.00695684509277,118.3507615814209,86.52005684509277Q117.70376158142089,87.03325684509278,117.0317615814209,87.51505684509277Q116.3607615814209,87.99685684509278,115.6647615814209,88.44625684509278Q114.9697615814209,88.89565684509277,114.2517615814209,89.31145684509278Q113.5347615814209,89.72735684509277,112.7977615814209,90.10855684509278Q112.0597615814209,90.48985684509277,111.3037615814209,90.83575684509277Q110.5477615814209,91.18155684509277,109.7747615814209,91.49105684509277Q109.0017615814209,91.80065684509277,108.2147615814209,92.07315684509277Q107.4272615814209,92.34565684509278,106.6269615814209,92.58045684509277Q105.8265615814209,92.81525684509278,105.0152615814209,93.01175684509278Q104.2039615814209,93.20825684509278,103.3837615814209,93.36605684509277Q102.5634615814209,93.52385684509278,101.7361615814209,93.64255684509277Q100.9088615814209,93.76125684509277,100.0765615814209,93.84055684509278Q99.2442615814209,93.91985684509277,98.4088615814209,93.95945684509277Q97.5735615814209,93.99915684509277,96.73716158142089,93.99915684509277Q94.9688615814209,93.99915684509277,93.2100615814209,93.82215684509278Q91.4512615814209,93.64505684509277,89.7208615814209,93.29285684509277Q87.9904615814209,92.94065684509278,86.3070615814209,92.41715684509278Q84.6235615814209,91.89355684509277,83.0052615814209,91.20425684509277ZM126.4357615814209,8.607816845092774Q126.2577615814209,9.111316845092773,126.0547615814209,9.605876845092773Q125.8517615814209,10.100436845092773,125.6237615814209,10.584886845092774Q125.3957615814209,11.069346845092774,125.1437615814209,11.542566845092773Q124.8917615814209,12.015776845092773,124.6167615814209,12.476646845092773Q124.3417615814209,12.937516845092773,124.0437615814209,13.384956845092773Q123.7457615814209,13.832386845092774,123.4257615814209,14.265346845092774Q123.1057615814209,14.698296845092774,122.7647615814209,15.115756845092774Q122.4227615814209,15.533216845092774,122.0607615814209,15.934206845092774Q121.6997615814209,16.33518684509277,121.3177615814209,16.718746845092774Q120.9367615814209,17.102316845092773,120.5357615814209,17.467556845092773Q120.1357615814209,17.832856845092774,119.7177615814209,18.178856845092774Q119.2997615814209,18.524956845092774,118.8647615814209,18.851056845092774Q118.4297615814209,19.177156845092775,117.9787615814209,19.482456845092774Q117.5287615814209,19.787756845092773,117.0627615814209,20.071656845092775Q116.5977615814209,20.35555684509277,116.1187615814209,20.617256845092776Q115.6387615814209,20.878956845092773,115.1477615814209,21.117956845092774Q114.6557615814209,21.356956845092775,114.1527615814209,21.572656845092773Q113.6497615814209,21.788256845092775,113.1367615814209,21.980156845092772Q112.6227615814209,22.171956845092772,112.1007615814209,22.339556845092773Q111.57876158142089,22.507156845092773,111.0487615814209,22.650056845092774Q110.5187615814209,22.792956845092775,109.9817615814209,22.910956845092773Q109.4457615814209,23.028856845092776,108.9034615814209,23.121556845092773Q108.3616615814209,23.214256845092773,107.8157615814209,23.281356845092773Q107.2698615814209,23.348556845092773,106.7212615814209,23.390156845092775Q106.1726615814209,23.431656845092775,105.6226615814209,23.447456845092773Q105.0726615814209,23.463256845092772,104.5224615814209,23.453256845092774Q103.9722615814209,23.443256845092773,103.4232615814209,23.407556845092774Q102.8742615814209,23.371756845092776,102.3276615814209,23.310356845092773Q101.7810615814209,23.248956845092774,101.2381615814209,23.162056845092774Q100.6952615814209,23.075056845092774,100.1573615814209,22.962856845092773Q99.6194615814209,22.850556845092775,99.0878615814209,22.713256845092772Q98.5562615814209,22.575956845092776,98.0320615814209,22.413856845092774Q98.2103615814209,21.91035684509277,98.4136615814209,21.415856845092776Q98.6169615814209,20.921256845092774,98.8447615814209,20.436856845092773Q99.0726615814209,19.952356845092773,99.3244615814209,19.479156845092774Q99.5762615814209,19.005956845092776,99.85146158142089,18.545056845092773Q100.1266615814209,18.08415684509277,100.42466158142089,17.636756845092773Q100.7225615814209,17.189306845092773,101.0426615814209,16.756356845092775Q101.3626615814209,16.323396845092773,101.7039615814209,15.905936845092773Q102.0452615814209,15.488476845092773,102.4071615814209,15.087496845092772Q102.7689615814209,14.686506845092772,103.1504615814209,14.302946845092773Q103.5319615814209,13.919376845092774,103.9321615814209,13.554136845092774Q104.3324615814209,13.188886845092775,104.7504615814209,12.842806845092774Q105.1685615814209,12.496736845092773,105.6034615814209,12.170656845092774Q106.0383615814209,11.844566845092773,106.4890615814209,11.539226845092774Q106.9398615814209,11.233896845092774,107.4052615814209,10.950026845092774Q107.8707615814209,10.666166845092773,108.3499615814209,10.404436845092773Q108.8290615814209,10.142706845092773,109.3207615814209,9.903716845092774Q109.8127615814209,9.664746845092774,110.3157615814209,9.449086845092774Q110.8187615814209,9.233426845092774,111.33176158142089,9.041576845092774Q111.8447615814209,8.849726845092773,112.3677615814209,8.682136845092774Q112.8897615814209,8.514556845092773,113.4197615814209,8.371623845092774Q113.9497615814209,8.228694845092773,114.4867615814209,8.110757845092774Q115.0227615814209,7.992821845092774,115.5647615814209,7.900153845092773Q116.1067615814209,7.8074868450927735,116.6527615814209,7.740305845092774Q117.1987615814209,7.673124845092773,117.7467615814209,7.631587845092773Q118.2957615814209,7.590050845092773,118.8457615814209,7.5742558450927735Q119.3957615814209,7.558460845092774,119.9457615814209,7.568443845092774Q120.4957615814209,7.578427845092773,121.0447615814209,7.614165845092773Q121.59376158142089,7.649904845092774,122.1407615814209,7.711314845092773Q122.6877615814209,7.772724845092774,123.2297615814209,7.859662845092774Q123.7727615814209,7.9465998450927735,124.3107615814209,8.058860845092774Q124.8487615814209,8.171120845092773,125.3807615814209,8.308441845092773Q125.9117615814209,8.445766845092773,126.4357615814209,8.607816845092774ZM119.1597615814209,52.710156845092776Q120.8067615814209,56.73275684509277,120.8067615814209,61.05015684509277Q120.8067615814209,65.36745684509278,119.1597615814209,69.39015684509278Q117.3567615814209,73.79355684509278,113.8757615814209,77.16035684509278Q110.3547615814209,80.56545684509277,105.7022615814209,82.34685684509277Q101.3867615814209,83.99915684509277,96.73716158142089,83.99915684509277Q92.0876615814209,83.99915684509277,87.7721615814209,82.34685684509277Q83.1194615814209,80.56545684509277,79.5985615814209,77.16035684509278Q76.1172615814209,73.79345684509278,74.3147615814209,69.39015684509278Q72.6680615814209,65.36745684509278,72.6680615814209,61.05015684509277Q72.6680615814209,56.732856845092776,74.3147615814209,52.710156845092776Q76.1172615814209,48.30675684509277,79.5985615814209,44.93985684509278Q83.1194615814209,41.53475684509277,87.7721615814209,39.753356845092775Q92.0876615814209,38.10105684509277,96.73716158142089,38.10105684509277Q101.3867615814209,38.10105684509277,105.7022615814209,39.753356845092775Q110.3547615814209,41.53475684509277,113.8757615814209,44.93985684509278Q117.3567615814209,48.30675684509277,119.1597615814209,52.710156845092776ZM86.9044615814209,62.142256845092774Q87.6182615814209,65.37675684509277,90.5091615814209,67.44255684509278Q90.6690615814209,67.55675684509276,90.8169615814209,67.68615684509277Q90.9649615814209,67.81555684509277,91.0994615814209,67.95885684509278Q91.2340615814209,68.10205684509278,91.3539615814209,68.25785684509277Q91.4738615814209,68.41365684509277,91.5778615814209,68.58045684509278Q91.6819615814209,68.74725684509278,91.7691615814209,68.92345684509277Q91.8564615814209,69.09955684509276,91.92596158142089,69.28345684509277Q91.9955615814209,69.46735684509278,92.0467615814209,69.65725684509277Q92.0980615814209,69.84705684509277,92.1304615814209,70.04095684509278Q92.1628615814209,70.23495684509277,92.1761615814209,70.43115684509277Q92.1893615814209,70.62725684509277,92.1833615814209,70.82385684509276Q92.1773615814209,71.02035684509278,92.1521615814209,71.21535684509277Q92.1269615814209,71.41025684509277,92.0827615814209,71.60185684509277Q92.0385615814209,71.79345684509278,91.9758615814209,71.97975684509278Q91.9130615814209,72.16605684509277,91.8323615814209,72.34525684509278Q91.7517615814209,72.52445684509277,91.6539615814209,72.69495684509278Q91.55606158142089,72.86535684509278,91.4420615814209,73.02535684509277Q91.2133615814209,73.34625684509277,90.9265615814209,73.61615684509277Q90.6397615814209,73.88615684509277,90.3058615814209,74.09485684509278Q89.9719615814209,74.30365684509277,89.6037615814209,74.44315684509277Q89.2355615814209,74.58265684509277,88.84716158142089,74.64755684509278Q88.4588615814209,74.71245684509277,88.0652615814209,74.70025684509277Q87.6717615814209,74.68795684509277,87.2880615814209,74.59915684509278Q86.9044615814209,74.51035684509277,86.5454615814209,74.34825684509278Q86.1864615814209,74.18615684509277,85.8658615814209,73.95715684509277Q83.2308615814209,72.07425684509278,81.4703615814209,69.42175684509277Q79.7503615814209,66.83025684509278,79.0960615814209,63.860356845092774Q79.05096158142089,63.655756845092775,79.0274615814209,63.44755684509278Q79.0039615814209,63.23935684509277,79.0022615814209,63.02985684509277Q79.0006615814209,62.820356845092775,79.0208615814209,62.611856845092774Q79.0410615814209,62.40335684509277,79.0828615814209,62.198156845092775Q79.1246615814209,61.992856845092774,79.1876615814209,61.793156845092774Q79.2507615814209,61.59335684509277,79.3342615814209,61.401256845092774Q79.4177615814209,61.209256845092774,79.5207615814209,61.026956845092776Q79.6238615814209,60.84465684509277,79.7453615814209,60.674156845092774Q79.9740615814209,60.353356845092776,80.2608615814209,60.08335684509277Q80.5476615814209,59.81345684509277,80.8815615814209,59.60465684509278Q81.2154615814209,59.395956845092776,81.5836615814209,59.25645684509277Q81.9518615814209,59.11695684509277,82.3402615814209,59.05205684509277Q82.7285615814209,58.98715684509278,83.1221615814209,58.99935684509278Q83.5156615814209,59.01155684509278,83.8993615814209,59.10045684509277Q84.28296158142089,59.18925684509277,84.6419615814209,59.35135684509277Q85.0009615814209,59.51335684509277,85.3214615814209,59.742456845092775Q85.6209615814209,59.956456845092774,85.8764615814209,60.221456845092774Q86.13186158142089,60.48655684509277,86.33476158142089,60.793856845092776Q86.5375615814209,61.101156845092774,86.68106158142089,61.440256845092776Q86.8245615814209,61.779456845092774,86.9037615814209,62.13915684509277L86.9044615814209,62.142256845092774Z" fill-rule="evenodd" fill="#FFFFFF" fill-opacity="1"/></g></g></g></g></g></svg>