<svg xmlns="http://www.w3.org/2000/svg" xmlns:xlink="http://www.w3.org/1999/xlink" fill="none" version="1.1" width="140" height="140" viewBox="0 0 140 140"><defs><clipPath id="master_svg0_1_0613"><rect x="0" y="0" width="140" height="140" rx="0"/></clipPath></defs><g clip-path="url(#master_svg0_1_0613)"><g><g><g><path d="M31.680255859375,49.5159375Q28.808855859375,50.346937499999996,26.109655859375,51.7044375Q21.131855859375,54.2078375,17.334345859375,58.1970375Q13.490535859375,62.2348375,11.348325859375,67.2786375Q9.121044859375,72.5226375,9.006028179375,78.2263375Q8.888066859375,84.07593750000001,11.006555859375,89.5157375Q13.043375859375,94.7458375,16.893795859375,98.9620375Q20.703355859375,103.1334375,25.780955859375,105.7573375Q30.978755859375,108.4432375,36.844155859375,109.1589375L37.145655859375,109.1957375L65.44955585937501,109.1970375L83.932955859375,109.1951375L83.950255859375,99.1952375L65.466855859375,99.1972375L37.786455859374996,99.1959375Q33.862355859375,98.6687375,30.384855859375,96.8717375Q26.891255859375,95.0664375,24.283755859375,92.2113375Q21.687655859375,89.3686375,20.325955859375,85.87213750000001Q18.926175859375,82.2777375,19.004155859375,78.4096375Q19.080255859375,74.6377375,20.551655859375,71.1733375Q21.982555859374997,67.8043375,24.571555859375,65.0847375Q27.167955859375,62.3572375,30.589655859375,60.6364375Q30.922555859375,60.4689375,31.259455859375,60.3130375Q32.244455859375,67.26513750000001,36.450055859375,73.20173750000001Q36.626955859375,73.4515375,36.833055859375,73.6779375Q37.039155859375,73.9043375,37.271255859375,74.1038375Q37.503355859375,74.3034375,37.758055859375,74.47323750000001Q38.012855859375,74.64303749999999,38.286355859375,74.7804375Q38.559855859375,74.9179375,38.848055859374995,75.0210375Q39.136255859375,75.1241375,39.434855859375,75.1913375Q39.733455859375,75.2585375,40.037955859375,75.2888375Q40.342455859375,75.3191375,40.648455859375005,75.3120375Q40.893955859375,75.3063375,41.137755859375,75.27663749999999Q41.381555859375,75.2469375,41.621255859375,75.1934375Q41.860955859375,75.1400375,42.094255859375,75.0632375Q42.327555859375,74.9865375,42.552155859375,74.8873375Q42.776855859375,74.7881375,42.990655859375,74.6673375Q43.204455859375,74.5466375,43.405355859375,74.4054375Q43.606255859375,74.26433750000001,43.792355859375,74.10413750000001Q43.978455859375,73.94403750000001,44.147955859375,73.76633749999999Q44.317455859375,73.5886375,44.468755859375,73.39523750000001Q44.620055859375,73.20183750000001,44.751555859375,72.9945375Q44.883155859375,72.7871375,44.993755859375,72.5679375Q45.104355859375,72.3486375,45.192955859375,72.11963750000001Q45.281455859375,71.8905375,45.347155859375,71.6539375Q45.412855859375,71.4173375,45.455055859375,71.1753375Q45.497255859375,70.9333375,45.515455859375,70.68843749999999Q45.533755859375,70.44353749999999,45.527855859375,70.1979375Q45.519055859375,69.8269375,45.455455859375,69.46123750000001Q45.391955859375,69.0954375,45.275155859375,68.7431375Q45.158355859375,68.3907375,44.990755859375,68.0594375Q44.823255859375,67.7282375,44.608555859375,67.42523750000001L44.605455859375,67.4207375L44.601655859375,67.4154375Q41.106755859375,62.4762375,40.964455859375,56.5063375Q40.865655859374996,52.3604375,42.458555859375,48.5359375Q44.009655859375,44.8119375,46.945955859375,41.8842375Q49.908155859375,38.9307375,53.811555859375,37.2537375Q57.872655859375,35.5090375,62.378155859375,35.4048375Q66.363655859375,35.312687499999996,70.08645585937501,36.5272375Q73.667855859375,37.6955375,76.634455859375,39.945637500000004Q79.559455859375,42.1642375,81.530355859375,45.162437499999996Q83.520055859375,48.1891375,84.302455859375,51.6625375L84.305755859375,51.6769375Q84.352755859375,51.8865375,84.417655859375,52.0913375Q84.482455859375,52.2961375,84.564655859375,52.494637499999996Q84.646755859375,52.6931375,84.745655859375,52.8838375Q84.844555859375,53.074537500000005,84.959455859375,53.2561375Q85.074255859375,53.4377375,85.204255859375,53.608737500000004Q85.334355859375,53.7798375,85.478455859375,53.9391375Q85.622655859375,54.0984375,85.780055859375,54.2447375Q85.937355859375,54.391037499999996,86.106555859375,54.5234375Q86.275855859375,54.6557375,86.455855859375,54.7730375Q86.635855859375,54.8903375,86.825155859375,54.9918375Q87.014555859375,55.093337500000004,87.211955859375,55.1781375Q87.409355859375,55.263037499999996,87.613255859375,55.3306375Q87.817155859375,55.3983375,88.026055859375,55.448237500000005Q88.235055859375,55.4981375,88.447455859375,55.5299375Q88.659855859375,55.5617375,88.874255859375,55.5751375Q89.088655859375,55.588637500000004,89.303355859375,55.583637499999995Q89.548955859375,55.5780375,89.792755859375,55.5482375Q90.036555859375,55.5185375,90.276255859375,55.4650375Q90.515955859375,55.4116375,90.749155859375,55.334937499999995Q90.982455859375,55.258137500000004,91.207155859375,55.1589375Q91.431755859375,55.0597375,91.645555859375,54.9390375Q91.859355859375,54.818237499999995,92.060255859375,54.6770375Q92.261255859375,54.5359375,92.447355859375,54.3757375Q92.633455859375,54.2156375,92.802955859375,54.0379375Q92.972455859375,53.8603375,93.123655859375,53.6668375Q93.274955859375,53.4734375,93.406555859375,53.2661375Q93.538055859375,53.0587375,93.648655859375,52.8395375Q93.759255859375,52.6202375,93.847855859375,52.3912375Q93.936455859375,52.1622375,94.002155859375,51.925537500000004Q94.067755859375,51.6889375,94.109955859375,51.446937500000004Q94.152155859375,51.2050375,94.170355859375,50.9600375Q94.188655859375,50.7151375,94.182755859375,50.4695375Q94.171055859375,49.9755375,94.062755859375,49.493337499999996L94.062555859375,49.492337500000005L94.060355859375,49.4824375Q92.878555859375,44.2268375,89.885455859375,39.6736375Q86.969555859375,35.2380275,82.673955859375,31.9799575Q78.364855859375,28.7116575,73.181955859375,27.0207875Q67.83395585937501,25.2760935,62.139855859375,25.40774918Q55.698555859375,25.5566795,49.858655859375,28.065617500000002Q44.198755859375,30.4972375,39.882855859375,34.8004575Q35.541055859375,39.1294375,33.226855859375,44.6857375Q32.238055859374995,47.0600375,31.680255859375,49.5159375Z" fill-rule="evenodd" fill="#FFFFFF" fill-opacity="1"/></g><g><ellipse cx="96.7370491027832" cy="79.05014419555664" rx="29.06915283203125" ry="27.94906997680664" fill-opacity="0" stroke-opacity="1" stroke="#FFFFFF" fill="none" stroke-width="10"/></g><g transform="matrix(0.8993945717811584,-0.4371376633644104,0.46110284328460693,0.8873466849327087,-6.479986161219131,45.50052112364938)"><path d="M126.7005537109375,41.125376484374996Q126.30995371093749,41.500456484375,125.9014537109375,41.856566484375Q125.4928537109375,42.212666484375,125.0671537109375,42.548956484375Q124.6414537109375,42.885246484375,124.1995537109375,43.200936484375Q123.7577537109375,43.516616484375,123.3008537109375,43.810956484375Q122.8439537109375,44.105296484375,122.3730537109375,44.377596484375Q121.9021537109375,44.649896484375,121.4183537109375,44.899496484375Q120.93455371093751,45.149196484375,120.4389537109375,45.375496484375Q119.9433537109375,45.601896484375004,119.4372537109375,45.804396484375Q118.9310537109375,46.006996484375,118.4154537109375,46.185296484375Q117.89985371093749,46.363596484375,117.3760537109375,46.517196484375Q116.8522537109375,46.670896484375,116.32155371093751,46.799396484375Q115.79075371093751,46.927996484375,115.2542537109375,47.031196484375Q114.7177537109375,47.134396484375,114.1767537109375,47.211996484375Q113.6358537109375,47.289696484375,113.09165371093749,47.341496484375Q112.5474537109375,47.393396484375,112.00135371093751,47.419296484374996Q111.4552537109375,47.445296484375,110.9085537109375,47.445296484375Q110.3618537109375,47.445296484375,109.8158537109375,47.419296484374996Q109.2697537109375,47.393396484375,108.72565371093751,47.341496484375Q108.1815537109375,47.289696484375,107.6405537109375,47.212096484374996Q107.0996537109375,47.134496484375,106.5631537109375,47.031296484375Q106.0267537109375,46.928096484375004,105.4960537109375,46.799496484375Q104.9652837109375,46.670996484374996,104.4415337109375,46.517396484375Q103.9177737109375,46.363796484375,103.4022137109375,46.185496484375Q102.8866637109375,46.007196484375,102.3805237109375,45.804696484375Q101.8743837109375,45.602196484375,101.3788437109375,45.375796484375Q100.8832937109375,45.149496484375,100.3995137109375,44.899896484375Q99.9157437109375,44.650326484375,99.4448637109375,44.378066484375Q98.9739737109375,44.105806484375,98.5171037109375,43.811506484375Q98.0602237109375,43.517216484375,97.6184237109375,43.201576484374996Q97.1766237109375,42.885936484375,96.7509337109375,42.549696484375Q96.3252437109375,42.213456484375,95.9166607109375,41.857396484375Q95.5080807109375,41.501346484375,95.1175719718375,41.126306484375Q95.5080887109375,40.751226484374996,95.9166787109375,40.395116484375Q96.3252737109375,40.039016484375,96.7509737109375,39.702726484375Q97.1766837109375,39.366436484375,97.6185037109375,39.050746484375Q98.0603237109375,38.735066484375,98.5172237109375,38.440726484375Q98.9741237109375,38.146386484375,99.4450237109375,37.874086484375Q99.9159337109375,37.601786484375,100.3997437109375,37.352156484375Q100.8835437109375,37.102536484375,101.3791137109375,36.876166484375Q101.87469371093749,36.649806484375,102.3808637109375,36.447236484375Q102.8870437109375,36.244666484375,103.4026337109375,36.066366484375Q103.9182237109375,35.888066484375,104.4420137109375,35.734448484375Q104.96580371093751,35.580834484375,105.4965537109375,35.452267484375Q106.0273537109375,35.323700484375,106.56385371093751,35.220482484375Q107.1003537109375,35.117265484375,107.6413537109375,35.039639484375Q108.1822537109375,34.962013484375,108.7264537109375,34.910161484375Q109.2706537109375,34.858309384375,109.8167537109375,34.832352984375Q110.3627537109375,34.806396484375,110.9095537109375,34.806396484375Q111.4562537109375,34.806396484375,112.0022537109375,34.832348884375Q112.5483537109375,34.858301284375,113.0924537109375,34.910145484375Q113.6365537109375,34.961989484375,114.1774537109375,35.039602484375Q114.7184537109375,35.117216484375,115.2548537109375,35.220418484375Q115.7913537109375,35.323619484375,116.3220537109375,35.452166484375Q116.8528537109375,35.580713484375,117.3765537109375,35.734304484375Q117.90035371093751,35.887896484375,118.4158537109375,36.066166484375Q118.9314537109375,36.244446484375,119.4375537109375,36.446986484375Q119.9437537109375,36.649526484375,120.43925371093749,36.875856484375Q120.9347537109375,37.102186484375,121.4185537109375,37.351766484375Q121.9023537109375,37.601356484375,122.3732537109375,37.873616484375Q122.8441537109375,38.145876484375,123.3009537109375,38.440176484375Q123.7578537109375,38.734466484375,124.1996537109375,39.050106484375Q124.6414537109375,39.365746484375,125.0671537109375,39.701986484375Q125.4928537109375,40.038226484375,125.9014537109375,40.394286484375Q126.3100537109375,40.750336484375,126.7005537109375,41.125376484374996Z" fill-rule="evenodd" fill="#FFFFFF" fill-opacity="1"/></g></g><g transform="matrix(0.8136252164840698,0.5813896656036377,-0.5804058909416199,0.8143272995948792,62.48181974660838,-33.2158278721181)"><path d="M85.6817779296875,78.032025859375Q88.1403979296875,80.248720859375,91.6935279296875,80.248720859375Q91.8900379296875,80.248720859375,92.0855979296875,80.267981859375Q92.2811579296875,80.287242859375,92.47388792968749,80.325578859375Q92.6666179296875,80.363915859375,92.8546679296875,80.420958859375Q93.0426779296875,80.478001859375,93.2242779296875,80.553201859375Q93.4057779296875,80.628402859375,93.5790779296875,80.721034859375Q93.7523779296875,80.813667859375,93.9157779296875,80.922841959375Q94.0791779296875,81.032015559375,94.2310779296875,81.156678859375Q94.3829779296875,81.281341859375,94.5219779296875,81.420292859375Q94.6608779296875,81.559244859375,94.7855779296875,81.711146859375Q94.9102779296875,81.863049859375,95.0193779296875,82.026435859375Q95.1285779296875,82.189825859375,95.2211779296875,82.363135859375Q95.3138779296875,82.536435859375,95.3890779296875,82.717985859375Q95.4642779296875,82.899535859375,95.5212779296875,83.087585859375Q95.5783779296875,83.275625859375,95.6166779296875,83.468355859375Q95.6549779296875,83.661085859375,95.6742779296875,83.856655859375Q95.6934779296875,84.052215859375,95.6934779296875,84.248715859375Q95.6934779296875,84.445225859375,95.6742779296875,84.640785859375Q95.6549779296875,84.836345859375,95.6166779296875,85.029085859375Q95.5783779296875,85.221815859375,95.5212779296875,85.409855859375Q95.4642779296875,85.597905859375,95.3890779296875,85.779455859375Q95.3138779296875,85.961005859375,95.2211779296875,86.134305859375Q95.1285779296875,86.307605859375,95.0193779296875,86.470995859375Q94.9102779296875,86.634385859375,94.7855779296875,86.786295859375Q94.6608779296875,86.938195859375,94.5219779296875,87.077145859375Q94.3829779296875,87.216095859375,94.2310779296875,87.340765859375Q94.0791779296875,87.465425859375,93.9157779296875,87.574595859375Q93.7523779296875,87.683775859375,93.5790779296875,87.776405859375Q93.4057779296875,87.869035859375,93.2242779296875,87.944235859375Q93.0426779296875,88.019435859375,92.8546579296875,88.076485859375Q92.6666179296875,88.133525859375,92.47388792968749,88.171855859375Q92.2811579296875,88.210195859375,92.0855979296875,88.229455859375Q91.8900379296875,88.248715859375,91.6935279296875,88.248715859375Q88.4548879296875,88.248715859375,85.4817479296875,87.114135859375Q82.5769919296875,86.005645859375,80.3203579296875,83.969635859375Q80.1648979296875,83.829375859375,80.0249379296875,83.673655859375Q79.8849679296875,83.517935859375,79.7620279296875,83.348445859375Q79.6390879296875,83.178965859375,79.5345179296875,82.997575859375Q79.4299379296875,82.816175859375,79.3448779296875,82.624855859375Q79.2598079296875,82.433535859375,79.1951879296875,82.234385859375Q79.1305579296875,82.035225859375,79.0870779296875,81.830415859375Q79.0435979296875,81.625601859375,79.0217379296875,81.417367859375Q78.9998779296875,81.209133859375,78.9998779296875,80.999755859375Q78.9998779296875,80.803248859375,79.0191379296875,80.607686859375Q79.0383979296875,80.412125859375,79.0767379296875,80.219394859375Q79.1150779296875,80.026662859375,79.1721179296875,79.838615859375Q79.2291579296875,79.650575859375,79.3043579296875,79.469025859375Q79.3795579296875,79.287475859375,79.4721979296875,79.114165859375Q79.5648279296875,78.940865859375,79.6739979296875,78.777475859375Q79.7831779296875,78.614085859375,79.9078379296875,78.462185859375Q80.0324979296875,78.310275859375,80.1714479296875,78.171325859375Q80.3103979296875,78.032375859375,80.4623079296875,77.907715859375Q80.6142079296875,77.783055859375,80.7775979296875,77.673875859375Q80.9409879296875,77.564705859375,81.1142879296875,77.472075859375Q81.2875979296875,77.379435859375,81.4691479296875,77.304235859375Q81.6506979296875,77.229035859375,81.8387379296875,77.171995859375Q82.0267849296875,77.114955859375,82.2195169296875,77.076615859375Q82.4122479296875,77.038275859375,82.6078089296875,77.019015859375Q82.8033709296875,76.999755859375,82.9998779296875,76.999755859375Q83.3679349296875,76.999755859375,83.7298119296875,77.066915859375Q84.0916879296875,77.134085859375,84.4352279296875,77.266155859375Q84.7787779296875,77.398225859375,85.0924479296875,77.590775859375Q85.4061279296875,77.783325859375,85.6793979296875,78.029875859375Q85.6805879296875,78.030955859375,85.6817779296875,78.032025859375Z" fill-rule="evenodd" fill="#FFFFFF" fill-opacity="1"/></g></g></g></svg>