<svg xmlns="http://www.w3.org/2000/svg" xmlns:xlink="http://www.w3.org/1999/xlink" fill="none" version="1.1" width="140" height="140" viewBox="0 0 140 140"><defs><clipPath id="master_svg0_1_0689"><rect x="0" y="0" width="140" height="140" rx="0"/></clipPath></defs><g clip-path="url(#master_svg0_1_0689)"><g><g><g><path d="M31.680255859375,49.5161375Q28.808855859375,50.3472375,26.109655859375,51.704637500000004Q21.131855859375,54.2081375,17.334345859375,58.1972375Q13.490535859375,62.2351375,11.348325859375,67.27883750000001Q9.121044859375,72.5229375,9.006028179375,78.22663750000001Q8.888066859375,84.0761375,11.006555859375,89.5160375Q13.043375859375,94.7461375,16.893795859375,98.9622375Q20.703355859375,103.1337375,25.780955859375,105.7575375Q30.978755859375,108.4435375,36.844155859375,109.1592375L37.145655859375,109.1959375L65.44955585937501,109.1972375L83.932955859375,109.1953375L83.950255859375,99.1955375L65.466855859375,99.1974375L37.786455859374996,99.1961375Q33.862355859375,98.6690375,30.384855859375,96.8720375Q26.891255859375,95.0667375,24.283755859375,92.2115375Q21.687655859375,89.3688375,20.325955859375,85.8723375Q18.926175859375,82.27803750000001,19.004155859375,78.40983750000001Q19.080255859375,74.6380375,20.551655859375,71.1736375Q21.982555859374997,67.80453750000001,24.571555859375,65.0849375Q27.167955859375,62.3575375,30.589655859375,60.6366375Q30.922655859375,60.4692375,31.259455859375,60.3133375Q32.244555859375,67.2652375,36.450055859375,73.20173750000001Q36.626955859375,73.4515375,36.833055859375,73.6779375Q37.039155859375,73.9043375,37.271255859375,74.1038375Q37.503355859375,74.3034375,37.758055859375,74.47323750000001Q38.012855859375,74.64303749999999,38.286355859375,74.7804375Q38.559855859375,74.9179375,38.848055859374995,75.0210375Q39.136255859375,75.1241375,39.434855859375,75.1913375Q39.733455859375,75.2585375,40.037955859375,75.2888375Q40.342455859375,75.3191375,40.648455859375005,75.3120375Q40.893955859375,75.3063375,41.137755859375,75.27663749999999Q41.381555859375,75.2469375,41.621255859375,75.1934375Q41.860955859375,75.1400375,42.094255859375,75.0632375Q42.327555859375,74.9865375,42.552155859375,74.8873375Q42.776855859375,74.7881375,42.990655859375,74.6673375Q43.204455859375,74.5466375,43.405355859375,74.4054375Q43.606255859375,74.26433750000001,43.792355859375,74.10413750000001Q43.978455859375,73.94403750000001,44.147955859375,73.76633749999999Q44.317455859375,73.5886375,44.468755859375,73.39523750000001Q44.620055859375,73.20183750000001,44.751555859375,72.9945375Q44.883155859375,72.7871375,44.993755859375,72.5679375Q45.104355859375,72.3486375,45.192955859375,72.11963750000001Q45.281455859375,71.8905375,45.347155859375,71.6539375Q45.412855859375,71.4173375,45.455055859375,71.1753375Q45.497255859375,70.9333375,45.515455859375,70.68843749999999Q45.533755859375,70.44353749999999,45.527855859375,70.1979375Q45.519055859375,69.8269375,45.455455859375,69.46123750000001Q45.391955859375,69.0954375,45.275155859375,68.7431375Q45.158355859375,68.3907375,44.990755859375,68.0594375Q44.823255859375,67.7282375,44.608555859375,67.42523750000001L44.605455859375,67.4207375L44.601655859375,67.4154375Q41.106755859375,62.4762375,40.964455859375,56.5063375Q40.865655859374996,52.3604375,42.458555859375,48.5359375Q44.009655859375,44.8119375,46.945955859375,41.8842375Q49.908155859375,38.9307375,53.811555859375,37.2537375Q57.872655859375,35.5090375,62.378155859375,35.4048375Q66.363655859375,35.312687499999996,70.08645585937501,36.5272375Q73.667855859375,37.6955375,76.634455859375,39.945637500000004Q79.559455859375,42.1642375,81.530355859375,45.162437499999996Q83.520055859375,48.1891375,84.302455859375,51.6625375L84.305755859375,51.6769375Q84.352755859375,51.8865375,84.417655859375,52.0913375Q84.482455859375,52.2961375,84.564655859375,52.494637499999996Q84.646755859375,52.6931375,84.745655859375,52.8838375Q84.844555859375,53.074537500000005,84.959455859375,53.2561375Q85.074255859375,53.4377375,85.204255859375,53.608737500000004Q85.334355859375,53.7798375,85.478455859375,53.9391375Q85.622655859375,54.0984375,85.780055859375,54.2447375Q85.937355859375,54.391037499999996,86.106555859375,54.5234375Q86.275855859375,54.6557375,86.455855859375,54.7730375Q86.635855859375,54.8903375,86.825155859375,54.9918375Q87.014555859375,55.093337500000004,87.211955859375,55.1781375Q87.409355859375,55.263037499999996,87.613255859375,55.3306375Q87.817155859375,55.3983375,88.026055859375,55.448237500000005Q88.235055859375,55.4981375,88.447455859375,55.5299375Q88.659855859375,55.5617375,88.874255859375,55.5751375Q89.088655859375,55.588637500000004,89.303355859375,55.583637499999995Q89.548955859375,55.5780375,89.792755859375,55.5482375Q90.036555859375,55.5185375,90.276255859375,55.4650375Q90.515955859375,55.4116375,90.749155859375,55.334937499999995Q90.982455859375,55.258137500000004,91.207155859375,55.1589375Q91.431755859375,55.0597375,91.645555859375,54.9390375Q91.859355859375,54.818237499999995,92.060255859375,54.6770375Q92.261255859375,54.5359375,92.447355859375,54.3757375Q92.633455859375,54.2156375,92.802955859375,54.0379375Q92.972455859375,53.8603375,93.123655859375,53.6668375Q93.274955859375,53.4734375,93.406555859375,53.2661375Q93.538055859375,53.0587375,93.648655859375,52.8395375Q93.759255859375,52.6202375,93.847855859375,52.3912375Q93.936455859375,52.1622375,94.002155859375,51.925537500000004Q94.067755859375,51.6889375,94.109955859375,51.446937500000004Q94.152155859375,51.2050375,94.170355859375,50.9600375Q94.188655859375,50.7151375,94.182755859375,50.4695375Q94.171055859375,49.9755375,94.062755859375,49.493337499999996L94.062555859375,49.492337500000005L94.060355859375,49.4824375Q92.878555859375,44.2268375,89.885455859375,39.6736375Q86.969555859375,35.2380275,82.673955859375,31.9799575Q78.364855859375,28.7116575,73.181955859375,27.0207875Q67.83395585937501,25.2760935,62.139855859375,25.40774918Q55.698555859375,25.5566795,49.858655859375,28.065617500000002Q44.198755859375,30.4972375,39.882855859375,34.8004575Q35.541055859375,39.1294375,33.226855859375,44.6857375Q32.237955859375,47.060137499999996,31.680255859375,49.5161375Z" fill-rule="evenodd" fill="#000000" fill-opacity="1"/></g><g><ellipse cx="96.7370491027832" cy="79.04965591430664" rx="29.06915283203125" ry="27.94906997680664" fill-opacity="0" stroke-opacity="1" stroke="#000000" fill="none" stroke-width="10"/></g><g transform="matrix(0.8993945717811584,-0.4371376633644104,0.46110284328460693,0.8873466849327087,-6.479873587282782,45.50049362039863)"><path d="M126.7006537109375,41.12512234375Q126.3101537109375,41.50020234375,125.90155371093749,41.85630234375Q125.4929537109375,42.21240234375,125.0672537109375,42.54868234375Q124.6415537109375,42.88497234375,124.1997537109375,43.20064234375Q123.7579537109375,43.51632234375,123.3010537109375,43.810662343749996Q122.8441537109375,44.10499234375,122.3732537109375,44.37729234375Q121.9023537109375,44.64958234375,121.4184537109375,44.89925234375Q120.9346537109375,45.14885234375,120.4391537109375,45.37515234375Q119.9435537109375,45.60155234375,119.4373537109375,45.80415234375Q118.9312537109375,46.00665234375,118.4156537109375,46.18495234375Q117.9000537109375,46.36325234375,117.3762537109375,46.51685234375Q116.8524537109375,46.67045234375,116.3217537109375,46.79905234375Q115.7909537109375,46.92765234375,115.2544537109375,47.03085234375Q114.71795371093751,47.13405234375,114.1769537109375,47.21165234375Q113.6360537109375,47.28935234375,113.0918537109375,47.34115234375Q112.5476537109375,47.39305234375,112.0016537109375,47.41895234375Q111.4555537109375,47.44495234375,110.9087537109375,47.44495234375Q110.3621537109375,47.44495234375,109.8160537109375,47.41895234375Q109.2699537109375,47.39305234375,108.7258537109375,47.34115234375Q108.1817537109375,47.28935234375,107.6407537109375,47.21175234375Q107.0998537109375,47.13405234375,106.5634537109375,47.03085234375Q106.0269537109375,46.92765234375,105.4962537109375,46.79915234375Q104.9654737109375,46.67055234375,104.4417137109375,46.51695234375Q103.9179537109375,46.36335234375,103.4023937109375,46.18515234375Q102.8868337109375,46.00685234375,102.3806837109375,45.80425234375Q101.8745437109375,45.60175234375,101.3789937109375,45.37545234375Q100.8834537109375,45.14905234375,100.3996637109375,44.89945234375Q99.91588371093749,44.64990234375,99.4450037109375,44.37764234375Q98.9741137109375,44.10537234375,98.5172337109375,43.81107234375Q98.0603537109375,43.51677234375,97.6185537109375,43.201132343750004Q97.1767437109375,42.88548234375,96.7510537109375,42.54923234375Q96.3253637109375,42.21299234375,95.9167837109375,41.85693234375Q95.5082027109375,41.50086234375,95.1176927289375,41.12582234375Q95.5082087109375,40.75074234375,95.9167977109375,40.394652343749996Q96.3253837109375,40.03855234375,96.7510937109375,39.70226234375Q97.1767937109375,39.36598234375,97.6186137109375,39.05030234375Q98.0604337109375,38.73462234375,98.5173237109375,38.44029234375Q98.9742237109375,38.14596234375,99.4451237109375,37.87366234375Q99.9160337109375,37.60136234375,100.3998337109375,37.35174234375Q100.8836337109375,37.10212234375,101.3792037109375,36.87576234375Q101.8747737109375,36.64940234375,102.3809437109375,36.44684234375Q102.8871137109375,36.24427234375,103.4027037109375,36.06597234375Q103.9182837109375,35.88767234375,104.4420737109375,35.73406434375Q104.9658637109375,35.58045234375,105.4966537109375,35.45188834375Q106.0273537109375,35.32332334375,106.56385371093751,35.22010834375Q107.1003537109375,35.11689234375,107.6413537109375,35.03926834375Q108.1823537109375,34.96164434375,108.7264537109375,34.90979334375Q109.2706537109375,34.85794204375,109.8167537109375,34.83198604375Q110.3628537109375,34.80603008575,110.9095537109375,34.80603008175Q111.4562537109375,34.80603007675,112.0022537109375,34.83198294375Q112.5483537109375,34.85793584375,113.0924537109375,34.90978034375Q113.63665371093751,34.96162534375,114.1775537109375,35.03924134375Q114.7184537109375,35.11685634375,115.2549537109375,35.22005934375Q115.7913537109375,35.32326334375,116.3221537109375,35.45181234375Q116.8528537109375,35.58036234375,117.3766537109375,35.73395634375Q117.90035371093751,35.88755234375,118.4159537109375,36.06583234375Q118.9314537109375,36.24410234375,119.4376537109375,36.44665234375Q119.9437537109375,36.64919234375,120.4393537109375,36.87552234375Q120.9348537109375,37.10186234375,121.4186537109375,37.35145234375Q121.9024537109375,37.60104234375,122.3733537109375,37.87331234375Q122.8442537109375,38.14557234375,123.3010537109375,38.43987234375Q123.7579537109375,38.734172343750004,124.1997537109375,39.04982234375Q124.6415537109375,39.365462343749996,125.0672537109375,39.70171234375Q125.4929537109375,40.03796234375,125.90155371093749,40.39402234375Q126.3101537109375,40.75008234375,126.7006537109375,41.12512234375Z" fill-rule="evenodd" fill="#000000" fill-opacity="1"/></g></g><g transform="matrix(0.8136252164840698,0.5813896656036377,-0.5804058909416199,0.8143272995948792,62.48167804595141,-33.21587320236722)"><path d="M85.6817779296875,78.03178171875Q88.1403979296875,80.24847671875,91.6935279296875,80.24847671875Q91.8900379296875,80.24847671875,92.0855979296875,80.26773771875Q92.2811579296875,80.28699871875,92.47388792968749,80.32533471875Q92.6666179296875,80.36367171875,92.8546679296875,80.42071471875Q93.0426779296875,80.47775771875,93.2242779296875,80.55295771875Q93.4057779296875,80.62815871875,93.5790779296875,80.72079071875Q93.7523779296875,80.81342371875,93.9157779296875,80.92259781875Q94.0791779296875,81.03177141875,94.2310779296875,81.15643471875Q94.3829779296875,81.28109771875,94.5219779296875,81.42004871875Q94.6608779296875,81.55900071875,94.7855779296875,81.71090271875Q94.9102779296875,81.86280571875,95.0193779296875,82.02619171875Q95.1285779296875,82.18958171875,95.2211779296875,82.36289171875Q95.3138779296875,82.53619171875,95.3890779296875,82.71774171875Q95.4642779296875,82.89929171875,95.5212779296875,83.08734171875Q95.5783779296875,83.27538171875,95.6166779296875,83.46811171875Q95.6549779296875,83.66084171875,95.6742779296875,83.85641171875Q95.6934779296875,84.05197171875,95.6934779296875,84.24847171875Q95.6934779296875,84.44498171875,95.6742779296875,84.64054171875Q95.6549779296875,84.83610171875,95.6166779296875,85.02884171875Q95.5783779296875,85.22157171875,95.5212779296875,85.40961171875Q95.4642779296875,85.59766171875,95.3890779296875,85.77921171875Q95.3138779296875,85.96076171875,95.2211779296875,86.13406171875Q95.1285779296875,86.30736171875,95.0193779296875,86.47075171875Q94.9102779296875,86.63414171875,94.7855779296875,86.78605171875Q94.6608779296875,86.93795171875,94.5219779296875,87.07690171875Q94.3829779296875,87.21585171875,94.2310779296875,87.34052171875Q94.0791779296875,87.46518171875,93.9157779296875,87.57435171875Q93.7523779296875,87.68353171875,93.5790779296875,87.77616171875Q93.4057779296875,87.86879171875,93.2242779296875,87.94399171875Q93.0426779296875,88.01919171875,92.8546579296875,88.07624171875Q92.6666179296875,88.13328171875,92.47388792968749,88.17161171875Q92.2811579296875,88.20995171875,92.0855979296875,88.22921171875Q91.8900379296875,88.24847171875,91.6935279296875,88.24847171875Q88.4548879296875,88.24847171875,85.4817479296875,87.11389171875Q82.5769919296875,86.00540171875,80.3203579296875,83.96939171875Q80.1648979296875,83.82913171875,80.0249379296875,83.67341171875Q79.8849679296875,83.51769171875,79.7620279296875,83.34820171875Q79.6390879296875,83.17872171875,79.5345179296875,82.99733171875Q79.4299379296875,82.81593171875,79.3448779296875,82.62461171875Q79.2598079296875,82.43329171875,79.1951879296875,82.23414171875Q79.1305579296875,82.03498171875,79.0870779296875,81.83017171875Q79.0435979296875,81.62535771875,79.0217379296875,81.41712371875Q78.9998779296875,81.20888971875,78.9998779296875,80.99951171875Q78.9998779296875,80.80300471875,79.0191379296875,80.60744271875Q79.0383979296875,80.41188171875,79.0767379296875,80.21915071875Q79.1150779296875,80.02641871875,79.1721179296875,79.83837171875Q79.2291579296875,79.65033171875,79.3043579296875,79.46878171875Q79.3795579296875,79.28723171875,79.4721979296875,79.11392171875Q79.5648279296875,78.94062171875,79.6739979296875,78.77723171875Q79.7831779296875,78.61384171875,79.9078379296875,78.46194171875Q80.0324979296875,78.31003171875,80.1714479296875,78.17108171875Q80.3103979296875,78.03213171875,80.4623079296875,77.90747171875Q80.6142079296875,77.78281171875,80.7775979296875,77.67363171875Q80.9409879296875,77.56446171875,81.1142879296875,77.47183171875Q81.2875979296875,77.37919171875,81.4691479296875,77.30399171875Q81.6506979296875,77.22879171875,81.8387379296875,77.17175171875Q82.0267849296875,77.11471171875,82.2195169296875,77.07637171875Q82.4122479296875,77.03803171875,82.6078089296875,77.01877171875Q82.8033709296875,76.99951171875,82.9998779296875,76.99951171875Q83.3679349296875,76.99951171875,83.7298119296875,77.06667171875Q84.0916879296875,77.13384171875,84.4352279296875,77.26591171875Q84.7787779296875,77.39798171875,85.0924479296875,77.59053171875Q85.4061279296875,77.78308171875,85.6793979296875,78.02963171875Q85.6805879296875,78.03071171875,85.6817779296875,78.03178171875Z" fill-rule="evenodd" fill="#000000" fill-opacity="1"/></g></g></g></svg>