<svg xmlns="http://www.w3.org/2000/svg" xmlns:xlink="http://www.w3.org/1999/xlink" fill="none" version="1.1" width="140" height="140" viewBox="0 0 140 140"><defs><clipPath id="master_svg0_97_1511"><rect x="0" y="0" width="140" height="140" rx="0"/></clipPath><linearGradient x1="0.5" y1="0" x2="0.5" y2="1" id="master_svg1_1_635"><stop offset="0%" stop-color="#FF5900" stop-opacity="1"/><stop offset="100%" stop-color="#FEA015" stop-opacity="1"/></linearGradient><linearGradient x1="0.21849365532398224" y1="0.08506011962890625" x2="0.5" y2="1" id="master_svg2_1_640"><stop offset="0%" stop-color="#FE7C19" stop-opacity="1"/><stop offset="99.99997019767761%" stop-color="#FEA315" stop-opacity="1"/></linearGradient></defs><g clip-path="url(#master_svg0_97_1511)"><g><g><path d="M36.44956743927002,73.20166801757813L36.45046743927002,73.20296801757812Q36.62746743927002,73.45276801757812,36.83356743927002,73.67916801757812Q37.039567439270016,73.90546801757813,37.27176743927002,74.10506801757813Q37.503867439270024,74.30456801757813,37.758567439270024,74.47436801757812Q38.013267439270024,74.64416801757812,38.28676743927002,74.78166801757813Q38.56026743927002,74.91906801757813,38.848467439270024,75.02216801757812Q39.13666743927002,75.12526801757812,39.43526743927002,75.19246801757812Q39.73386743927002,75.25966801757812,40.03836743927002,75.28996801757813Q40.34286743927002,75.32026801757812,40.64886743927002,75.31316801757814Q40.89436743927002,75.30746801757812,41.13816743927002,75.27776801757813Q41.38196743927002,75.24806801757813,41.62166743927002,75.19456801757812Q41.86136743927002,75.14106801757814,42.09466743927002,75.06436801757812Q42.32796743927002,74.98766801757813,42.55256743927002,74.88846801757813Q42.77726743927002,74.78926801757812,42.99106743927002,74.66846801757814Q43.20486743927002,74.54776801757812,43.40576743927002,74.40656801757812Q43.60666743927002,74.26546801757812,43.79276743927002,74.10526801757813Q43.97886743927002,73.94506801757812,44.14836743927002,73.76746801757812Q44.31786743927002,73.58976801757812,44.46916743927002,73.39636801757813Q44.62046743927002,73.20296801757812,44.75196743927002,72.99556801757812Q44.88356743927002,72.78826801757813,44.99416743927002,72.56906801757813Q45.10476743927002,72.34976801757813,45.19336743927002,72.12076801757811Q45.281867439270016,71.89166801757813,45.34756743927002,71.65506801757812Q45.41326743927002,71.41836801757813,45.455467439270016,71.17646801757812Q45.49766743927002,70.93446801757813,45.51586743927002,70.68956801757813Q45.53406743927002,70.44466801757812,45.52826743927002,70.19906801757813Q45.51946743927002,69.82796801757812,45.45586743927002,69.46226801757813Q45.39236743927002,69.09656801757812,45.27556743927002,68.74416801757812Q45.15866743927002,68.39176801757813,44.99116743927002,68.06046801757813Q44.82356743927002,67.72916801757813,44.60896743927002,67.42626801757812L44.60876743927002,67.42596801757813Q44.60526743927002,67.42106801757812,44.60176743927002,67.41616801757812Q41.10676743927002,62.47696801757812,40.964467439270024,56.507168017578124Q40.86566743927002,52.36116801757812,42.45876743927002,48.536568017578126Q44.00986743927002,44.81236801757812,46.94656743927002,41.884568017578125Q49.90906743927002,38.93086801757813,53.81286743927002,37.25386801757813Q57.87456743927002,35.50896801757813,62.38056743927002,35.40476801757812Q66.36656743927003,35.31264801757813,70.08986743927002,36.52726801757812Q73.67166743927002,37.69566801757813,76.63856743927002,39.94586801757812Q79.56396743927002,42.16446801757812,81.53506743927002,45.16286801757812Q82.66086743927002,46.87526801757812,83.40016743927002,48.73076801757813Q82.82766743927002,48.96626801757812,82.26446743927002,49.221868017578124Q81.70126743927003,49.477468017578126,81.14806743927002,49.75276801757812Q80.59486743927002,50.02806801757812,80.05246743927002,50.32276801757813Q79.51006743927002,50.61736801757813,78.97906743927003,50.93106801757813Q78.44816743927002,51.24466801757812,77.92946743927001,51.576768017578125Q77.41066743927001,51.908968017578125,76.90486743927002,52.259168017578126Q76.39896743927002,52.60946801757812,75.90666743927002,52.97736801757813Q75.41436743927002,53.345168017578125,74.93626743927003,53.730268017578126Q74.45816743927001,54.115268017578124,73.99496743927001,54.516868017578126Q73.53176743927001,54.918568017578124,73.08396743927003,55.33626801757812Q72.63626743927003,55.753968017578124,72.20456743927002,56.18726801757812Q71.77286743927002,56.620468017578126,71.35776743927002,57.068668017578126Q70.94276743927003,57.51696801757812,70.54486743927002,57.97946801757813Q70.14706743927002,58.44206801757812,69.76696743927002,58.918368017578125Q69.38676743927002,59.39466801757813,69.02486743927003,59.88406801757812Q68.66306743927002,60.373468017578126,68.31986743927001,60.875368017578126Q67.97666743927002,61.377268017578125,67.65266743927002,61.89086801757813Q67.32866743927002,62.40456801757813,67.02426743927002,62.929268017578124Q66.71986743927002,63.45406801757812,66.43556743927002,63.98916801757812Q66.15116743927001,64.52436801757813,65.88716743927003,65.06916801757812Q65.62316743927002,65.61396801757812,65.37996743927002,66.16776801757813Q65.13666743927001,66.72156801757812,64.91456743927003,67.28356801757812Q64.69236743927001,67.84556801757813,64.49156743927003,68.41506801757812Q64.29076743927001,68.98446801757812,64.11156743927002,69.56066801757812Q63.93236743927002,70.13686801757812,63.77506743927002,70.71896801757813Q63.61776743927002,71.30116801757814,63.48256743927002,71.88846801757813Q63.347367439270016,72.47576801757813,63.23436743927002,73.06736801757813Q63.12136743927002,73.65906801757812,63.03086743927002,74.25436801757812Q62.940267439270016,74.84966801757813,62.87226743927002,75.44766801757812Q62.80426743927002,76.04576801757813,62.75886743927002,76.64586801757812Q62.71346743927002,77.24596801757812,62.69076743927002,77.84716801757813Q62.66796743927002,78.44846801757812,62.66806743927002,79.05016801757813Q62.66796743927002,80.40546801757813,62.78306743927002,81.75616801757812Q62.89816743927002,83.10686801757812,63.12756743927002,84.44386801757813Q63.35696743927002,85.78086801757811,63.69916743927002,87.09506801757811Q64.04126743927003,88.40936801757812,64.49386743927002,89.69196801757812Q64.94646743927001,90.97456801757812,65.50646743927001,92.21696801757813Q66.06646743927001,93.45936801757813,66.73006743927002,94.65306801757812Q67.39366743927002,95.84666801757812,68.15636743927001,96.98366801757813Q68.91916743927001,98.12056801757812,69.77586743927003,99.19316801757813L65.47046743927001,99.19356801757813L37.78816743927002,99.19216801757813Q33.86356743927002,98.66506801757812,30.38566743927002,96.86806801757812Q26.89166743927002,95.06286801757813,24.284067439270018,92.20796801757812Q21.68776743927002,89.36546801757812,20.32606743927002,85.86936801757813Q18.92621743927002,82.27536801757813,19.00416743927002,78.40776801757812Q19.080267439270017,74.63636801757812,20.55166743927002,71.17246801757813Q21.982667439270017,67.80376801757812,24.57176743927002,65.08436801757813Q27.168267439270018,62.35706801757812,30.59036743927002,60.63636801757813Q30.922867439270018,60.46916801757813,31.25946743927002,60.31336801757813Q32.24406743927002,67.26376801757812,36.447767439270024,73.19916801757813L36.44956743927002,73.20166801757813ZM82.97556743927002,109.19166801757812L65.45316743927002,109.19336801757812L37.14736743927002,109.19196801757812L36.84596743927002,109.15526801757812Q30.98026743927002,108.43956801757813,25.78226743927002,105.75386801757813Q20.70436743927002,103.13026801757813,16.89455743927002,98.95916801757812Q13.04382743927002,94.74326801757813,11.00681743927002,89.51346801757812Q8.88809943927002,84.07376801757812,9.00605535927002,78.22446801757812Q9.121068439270019,72.52106801757813,11.348557439270019,67.27726801757812Q13.49093743927002,62.23376801757812,17.335037439270018,58.196168017578124Q21.13276743927002,54.20726801757813,26.11086743927002,51.70416801757813Q28.80956743927002,50.347068017578124,31.680367439270018,49.516168017578124Q32.238167439270015,47.06036801757813,33.227067439270016,44.686168017578126Q35.54146743927002,39.129668017578126,39.88366743927002,34.80056801757813Q44.19986743927002,30.497278017578125,49.86026743927002,28.065618017578124Q55.70056743927002,25.556663017578124,62.14236743927002,25.407722477578126Q67.83686743927002,25.276058017578126,73.18516743927002,27.020748017578125Q78.36846743927002,28.711628017578125,82.67786743927002,31.979968017578123Q86.97386743927002,35.238098017578125,89.88996743927002,39.67386801757812Q91.95296743927003,42.811968017578124,93.15556743927002,46.28366801757812Q94.94136743927002,46.10106801757813,96.73716743927002,46.10106801757813Q97.57356743927002,46.10106801757813,98.40886743927003,46.140768017578125Q99.24426743927002,46.18046801757812,100.07656743927002,46.259768017578125Q100.90886743927003,46.33906801757813,101.73616743927002,46.457768017578125Q102.56346743927001,46.576368017578126,103.38376743927002,46.73416801757813Q104.20396743927002,46.89196801757812,105.01526743927002,47.088568017578126Q105.82656743927002,47.285068017578126,106.62696743927002,47.519868017578126Q107.42726743927003,47.754668017578126,108.21476743927002,48.02716801757812Q109.00186743927001,48.29966801757813,109.77486743927003,48.60916801757813Q110.54786743927002,48.918768017578124,111.30386743927002,49.26456801757813Q112.05986743927002,49.610368017578125,112.79686743927002,49.99166801757812Q113.53486743927002,50.372968017578124,114.25186743927001,50.78876801757812Q114.96986743927002,51.20466801757813,115.66486743927003,51.654068017578126Q116.36086743927002,52.10336801757812,117.03186743927002,52.58526801757813Q117.70386743927001,53.06706801757812,118.35086743927002,53.580168017578124Q118.99686743927002,54.09336801757813,119.61686743927002,54.63656801757813Q120.23586743927002,55.17966801757812,120.82786743927002,55.751668017578126Q121.41886743927002,56.323568017578125,121.98086743927001,56.92296801757813Q122.54286743927003,57.52226801757813,123.07286743927001,58.14746801757813Q123.60386743927002,58.77276801757812,124.10186743927002,59.422468017578126Q124.59986743927001,60.072068017578125,125.06486743927002,60.74466801757813Q125.52886743927002,61.41716801757813,125.95886743927002,62.110968017578124Q126.38886743927002,62.80476801757813,126.78386743927003,63.51806801757812Q127.17786743927002,64.23146801757812,127.53486743927002,64.96266801757812Q127.89286743927002,65.69386801757813,128.21286743927,66.44106801757812Q128.53286743927003,67.18836801757813,128.81486743927002,67.94996801757813Q129.09686743927,68.71156801757812,129.33886743927002,69.48556801757812Q129.58186743927,70.25956801757812,129.78486743927002,71.04416801757813Q129.98886743927002,71.82876801757813,130.15186743927,72.62216801757813Q130.31486743927002,73.41546801757812,130.43786743927,74.21556801757814Q130.55986743927002,75.01566801757812,130.64186743927002,75.82056801757813Q130.72386743927,76.62556801757813,130.76486743927,77.43346801757812Q130.80586743927,78.24126801757812,130.80586743927,79.05016801757813Q130.80586743927,79.85906801757812,130.76486743927,80.66686801757812Q130.72386743927,81.47476801757813,130.64186743927002,82.27976801757814Q130.55986743927002,83.08466801757812,130.43786743927,83.88476801757812Q130.31486743927002,84.68486801757813,130.15186743927,85.47816801757813Q129.98886743927002,86.27156801757812,129.78486743927002,87.05616801757813Q129.58186743927,87.84076801757813,129.33886743927002,88.61476801757811Q129.09686743927,89.38876801757812,128.81486743927002,90.15036801757813Q128.53286743927003,90.91196801757812,128.21286743927,91.65926801757813Q127.89286743927002,92.40646801757812,127.53486743927002,93.13766801757812Q127.17786743927002,93.86886801757812,126.78386743927003,94.58226801757813Q126.38886743927002,95.29556801757812,125.95886743927002,95.98936801757813Q125.52886743927002,96.68316801757813,125.06486743927002,97.35566801757813Q124.59986743927001,98.02826801757813,124.10186743927002,98.67786801757812Q123.60386743927002,99.32756801757813,123.07286743927001,99.95286801757813Q122.54286743927003,100.57806801757812,121.98086743927001,101.17746801757812Q121.41886743927002,101.77676801757812,120.82786743927002,102.34866801757812Q120.23586743927002,102.92066801757812,119.61686743927002,103.46376801757812Q118.99686743927002,104.00696801757813,118.35086743927002,104.52016801757813Q117.70386743927001,105.03326801757812,117.03186743927002,105.51506801757813Q116.36086743927002,105.99696801757813,115.66486743927003,106.44636801757812Q114.96986743927002,106.89566801757813,114.25186743927001,107.31156801757813Q113.53486743927002,107.72736801757813,112.79686743927002,108.10866801757813Q112.05986743927002,108.48996801757812,111.30386743927002,108.83576801757812Q110.54786743927002,109.18156801757813,109.77486743927003,109.49116801757812Q109.00186743927001,109.80066801757812,108.21476743927002,110.07316801757813Q107.42726743927003,110.34566801757812,106.62696743927002,110.58046801757813Q105.82656743927002,110.81526801757812,105.01526743927002,111.01176801757812Q104.20396743927002,111.20836801757812,103.38376743927002,111.36616801757812Q102.56346743927001,111.52396801757813,101.73616743927002,111.64256801757813Q100.90886743927003,111.76126801757812,100.07656743927002,111.84056801757812Q99.24426743927002,111.91986801757812,98.40886743927003,111.95956801757812Q97.57356743927002,111.99926801757813,96.73716743927002,111.99926801757813Q94.96476743927002,111.99926801757813,93.20196743927002,111.82136801757812Q91.43916743927002,111.64346801757813,89.70496743927002,111.28966801757812Q87.97066743927002,110.93586801757813,86.28376743927002,110.40996801757812Q84.59686743927001,109.88396801757813,82.97556743927002,109.19166801757812ZM115.14786743927002,39.11866801757812Q115.63986743927002,38.879668017578126,116.11886743927002,38.617868017578125Q116.59786743927002,38.35616801757813,117.06286743927002,38.072268017578125Q117.52886743927002,37.78836801757812,117.97986743927002,37.48306801757813Q118.42986743927003,37.17766801757813,118.86486743927001,36.851568017578124Q119.29986743927002,36.52546801757813,119.71786743927002,36.17936801757813Q120.13586743927002,35.83326801757812,120.53686743927003,35.46796801757812Q120.93686743927002,35.10267801757813,121.31886743927002,34.71907801757813Q121.69986743927002,34.335478017578126,122.06186743927002,33.934468017578126Q122.42386743927003,33.533448017578124,122.76486743927002,33.11594801757813Q123.10586743927001,32.698458017578126,123.42586743927002,32.265458017578126Q123.74586743927001,31.832468017578126,124.04386743927002,31.384988017578124Q124.34186743927002,30.937508017578125,124.61786743927001,30.476608017578126Q124.89286743927002,30.015698017578124,125.14486743927002,29.542438017578124Q125.39586743927002,29.069178017578125,125.62386743927001,28.584678017578124Q125.85186743927002,28.100188017578127,126.05486743927003,27.605588017578125Q126.25886743927002,27.110988017578126,126.43686743927002,26.607448017578125Q125.91286743927002,26.445368017578126,125.38086743927002,26.308029017578125Q124.84886743927002,26.170690017578124,124.31186743927002,26.058413017578125Q123.77386743927002,25.946135017578126,123.23086743927001,25.859183017578125Q122.68786743927002,25.772230017578124,122.14086743927002,25.710807017578126Q121.59486743927002,25.649383017578124,121.04586743927003,25.613633017578124Q120.49686743927002,25.577882017578126,119.94586743927002,25.567889017578125Q119.39586743927002,25.557896017578123,118.84586743927002,25.573683017578126Q118.29586743927003,25.589471017578123,117.74686743927002,25.631002017578126Q117.19886743927002,25.672533017578125,116.65286743927003,25.739709017578125Q116.10686743927002,25.806886017578126,115.56486743927002,25.899552017578124Q115.02286743927002,25.992217017578124,114.48686743927001,26.110153017578124Q113.94986743927002,26.228089017578124,113.41986743927002,26.371020017578125Q112.88986743927002,26.513948017578127,112.36786743927001,26.681538017578124Q111.84486743927002,26.849128017578124,111.33186743927001,27.040988017578126Q110.81886743927002,27.232838017578125,110.31586743927002,27.448508017578124Q109.81286743927002,27.664178017578124,109.32086743927002,27.903158017578125Q108.82906743927002,28.142158017578126,108.34986743927001,28.403908017578125Q107.87066743927002,28.665658017578124,107.40516743927002,28.949538017578124Q106.93966743927002,29.233428017578124,106.48886743927002,29.538788017578124Q106.03816743927003,29.844148017578124,105.60316743927002,30.170258017578124Q105.16826743927002,30.496378017578124,104.75016743927002,30.842478017578124Q104.33206743927002,31.188578017578124,103.93186743927002,31.553858017578126Q103.53156743927002,31.919138017578124,103.15006743927002,32.30273801757812Q102.76856743927002,32.68633801757812,102.40676743927001,33.087358017578126Q102.04486743927002,33.488368017578125,101.70356743927002,33.90586801757813Q101.36216743927002,34.323368017578126,101.04216743927002,34.75635801757812Q100.72216743927002,35.18935801757812,100.42416743927002,35.636868017578124Q100.12616743927002,36.084268017578125,99.85096743927002,36.54516801757812Q99.57576743927002,37.006168017578126,99.32396743927002,37.479368017578125Q99.07216743927002,37.95266801757813,98.84436743927002,38.437168017578124Q98.61656743927001,38.92166801757813,98.41326743927002,39.416268017578126Q98.20996743927002,39.910868017578125,98.03166743927002,40.41436801757813Q98.55586743927002,40.57646801757812,99.08746743927001,40.713768017578126Q99.61916743927002,40.851168017578125,100.15706743927002,40.96336801757813Q100.69496743927002,41.075668017578124,101.23786743927002,41.16266801757813Q101.78076743927002,41.24956801757813,102.32736743927002,41.310968017578126Q102.87396743927002,41.37246801757813,103.42296743927002,41.40816801757812Q103.97206743927002,41.44396801757813,104.52226743927002,41.45396801757812Q105.07246743927001,41.463968017578125,105.62246743927003,41.448168017578126Q106.17256743927003,41.43236801757813,106.72116743927002,41.390768017578125Q107.26976743927003,41.349268017578126,107.81566743927002,41.282068017578126Q108.36156743927002,41.21496801757812,108.90346743927002,41.12226801757812Q109.44486743927001,41.02956801757813,109.98186743927002,40.91166801757812Q110.51886743927002,40.793768017578124,111.04886743927003,40.65076801757812Q111.57886743927001,40.507868017578126,112.10086743927002,40.340268017578126Q112.62286743927002,40.172668017578125,113.13686743927002,39.980868017578125Q113.64986743927003,39.78896801757813,114.15286743927003,39.57326801757812Q114.65586743927003,39.35766801757812,115.14786743927002,39.11866801757812ZM120.80586743927002,79.05016801757813Q120.80586743927002,74.73286801757813,119.15986743927002,70.71016801757813Q117.35686743927002,66.30676801757812,113.87586743927002,62.93986801757813Q110.35486743927002,59.53486801757813,105.70216743927001,57.753368017578126Q101.38666743927001,56.10106801757813,96.73716743927002,56.10106801757813Q92.08766743927002,56.10106801757813,87.77216743927002,57.753368017578126Q83.11936743927002,59.53486801757813,79.59856743927001,62.93986801757813Q76.11726743927002,66.30676801757812,74.31466743927002,70.71016801757813Q72.66806743927002,74.73286801757813,72.66806743927002,79.05016801757813Q72.66806743927002,83.36746801757812,74.31466743927002,87.39016801757813Q76.11726743927002,91.79356801757812,79.59856743927001,95.16046801757813Q83.11936743927002,98.56556801757813,87.77216743927002,100.34696801757812Q92.08766743927002,101.99926801757813,96.73716743927002,101.99926801757813Q101.38666743927001,101.99926801757813,105.70216743927001,100.34696801757812Q110.35486743927002,98.56556801757813,113.87586743927002,95.16046801757813Q117.35686743927002,91.79356801757812,119.15986743927002,87.39016801757813Q120.80586743927002,83.36746801757812,120.80586743927002,79.05016801757813Z" fill-rule="evenodd" fill="url(#master_svg1_1_635)" fill-opacity="1"/></g><g transform="matrix(0.8136252164840698,0.5813896656036377,-0.5804058909416199,0.8143272995948792,62.48181779145909,-33.21582177309779)"><path d="M85.68176743927002,78.032025859375Q88.14038743927001,80.248720859375,91.69351743927002,80.248720859375Q91.89002743927001,80.248720859375,92.08558743927001,80.267981859375Q92.28114743927001,80.287242859375,92.47387743927001,80.325578859375Q92.66660743927002,80.363915859375,92.85465743927001,80.420958859375Q93.04266743927002,80.478001859375,93.22426743927002,80.553201859375Q93.40576743927002,80.628402859375,93.57906743927002,80.721034859375Q93.75236743927002,80.813667859375,93.91576743927001,80.922841959375Q94.07916743927002,81.032015559375,94.23106743927002,81.156678859375Q94.38296743927002,81.281341859375,94.52196743927001,81.420292859375Q94.66086743927002,81.559244859375,94.78556743927003,81.711146859375Q94.91026743927002,81.863049859375,95.01936743927001,82.026435859375Q95.12856743927001,82.189825859375,95.22116743927002,82.363135859375Q95.31386743927001,82.536435859375,95.38906743927002,82.717985859375Q95.46426743927002,82.899535859375,95.52126743927002,83.087585859375Q95.57836743927002,83.275625859375,95.61666743927002,83.468355859375Q95.65496743927002,83.661085859375,95.67426743927003,83.856655859375Q95.69346743927002,84.052215859375,95.69346743927002,84.248715859375Q95.69346743927002,84.445225859375,95.67426743927003,84.640785859375Q95.65496743927002,84.836345859375,95.61666743927002,85.029085859375Q95.57836743927002,85.221815859375,95.52126743927002,85.409855859375Q95.46426743927002,85.597905859375,95.38906743927002,85.779455859375Q95.31386743927001,85.961005859375,95.22116743927002,86.134305859375Q95.12856743927001,86.307605859375,95.01936743927001,86.470995859375Q94.91026743927002,86.634385859375,94.78556743927003,86.786295859375Q94.66086743927002,86.938195859375,94.52196743927001,87.077145859375Q94.38296743927002,87.216095859375,94.23106743927002,87.340765859375Q94.07916743927002,87.465425859375,93.91576743927001,87.574595859375Q93.75236743927002,87.683775859375,93.57906743927002,87.776405859375Q93.40576743927002,87.869035859375,93.22426743927002,87.944235859375Q93.04266743927002,88.019435859375,92.85464743927002,88.076485859375Q92.66660743927002,88.133525859375,92.47387743927001,88.171855859375Q92.28114743927001,88.210195859375,92.08558743927001,88.229455859375Q91.89002743927001,88.248715859375,91.69351743927002,88.248715859375Q88.45487743927002,88.248715859375,85.48173743927002,87.114135859375Q82.57698143927001,86.005645859375,80.32034743927002,83.969635859375Q80.16488743927002,83.829375859375,80.02492743927002,83.673655859375Q79.88495743927002,83.517935859375,79.76201743927002,83.348445859375Q79.63907743927003,83.178965859375,79.53450743927002,82.997575859375Q79.42992743927002,82.816175859375,79.34486743927002,82.624855859375Q79.25979743927002,82.433535859375,79.19517743927003,82.234385859375Q79.13054743927002,82.035225859375,79.08706743927002,81.830415859375Q79.04358743927001,81.625601859375,79.02172743927002,81.417367859375Q78.99986743927002,81.209133859375,78.99986743927002,80.999755859375Q78.99986743927002,80.803248859375,79.01912743927002,80.607686859375Q79.03838743927002,80.412125859375,79.07672743927002,80.219394859375Q79.11506743927002,80.026662859375,79.17210743927002,79.838615859375Q79.22914743927002,79.650575859375,79.30434743927002,79.469025859375Q79.37954743927001,79.287475859375,79.47218743927002,79.114165859375Q79.56481743927002,78.940865859375,79.67398743927002,78.777475859375Q79.78316743927002,78.614085859375,79.90782743927002,78.462185859375Q80.03248743927001,78.310275859375,80.17143743927002,78.171325859375Q80.31038743927002,78.032375859375,80.46229743927002,77.907715859375Q80.61419743927001,77.783055859375,80.77758743927002,77.673875859375Q80.94097743927001,77.564705859375,81.11427743927003,77.472075859375Q81.28758743927001,77.379435859375,81.46913743927001,77.304235859375Q81.65068743927002,77.229035859375,81.83872743927002,77.171995859375Q82.02677443927001,77.114955859375,82.21950643927002,77.076615859375Q82.41223743927002,77.038275859375,82.60779843927001,77.019015859375Q82.80336043927002,76.999755859375,82.99986743927002,76.999755859375Q83.36792443927001,76.999755859375,83.72980143927002,77.066915859375Q84.09167743927001,77.134085859375,84.43521743927002,77.266155859375Q84.77876743927001,77.398225859375,85.09243743927001,77.590775859375Q85.40611743927002,77.783325859375,85.67938743927002,78.029875859375Q85.68057743927002,78.030955859375,85.68176743927002,78.032025859375Z" fill-rule="evenodd" fill="url(#master_svg2_1_640)" fill-opacity="1"/></g></g></g></svg>